HIERARCHY
ROOT hip
{
	OFFSET 0.000000 0.000000 0.000000 
	CHANNELS 6 Xposition Yposition Zposition Xrotation Zrotation Yrotation
	JOINT abdomen
	{
		OFFSET 0.000000 3.402643 0.000000 
		CHANNELS 3 Xrotation Zrotation Yrotation
		JOINT chest
		{
			OFFSET 0.000000 8.438565 -0.680529 
			CHANNELS 3 Xrotation Zrotation Yrotation
			JOINT neck
			{
				OFFSET 0.000000 10.207942 -0.272212 
				CHANNELS 3 Xrotation Zrotation Yrotation
				JOINT head
				{
					OFFSET 0.000000 3.130431 0.000000 
					CHANNELS 3 Xrotation Zrotation Yrotation
					End Site
					{
						OFFSET 0.000000 3.130435 0.000000 
					}
				}
			}
			JOINT lCollar
			{
				OFFSET 3.470700 6.669187 -0.816635 
				CHANNELS 3 Yrotation Zrotation Xrotation
				JOINT lShldr
				{
					OFFSET 3.198488 0.000000 0.000000 
					CHANNELS 3 Zrotation Yrotation Xrotation
					JOINT lForeArm
					{
						OFFSET 10.139888 0.000000 0.000000 
						CHANNELS 3 Yrotation Zrotation Xrotation
						JOINT lHand
						{
							OFFSET 8.370511 0.000000 0.000000 
							CHANNELS 3 Zrotation Yrotation Xrotation
							End Site
							{
								OFFSET 4.083176 0.000000 0.000000 
							}
						}
					}
				}
			}
			JOINT rCollar
			{
				OFFSET -3.470700 6.669187 -0.816635 
				CHANNELS 3 Yrotation Zrotation Xrotation
				JOINT rShldr
				{
					OFFSET -3.198488 0.000000 0.000000 
					CHANNELS 3 Zrotation Yrotation Xrotation
					JOINT rForeArm
					{
						OFFSET -10.139888 0.000000 0.000000 
						CHANNELS 3 Yrotation Zrotation Xrotation
						JOINT rHand
						{
							OFFSET -8.370511 0.000000 0.000000 
							CHANNELS 3 Zrotation Yrotation Xrotation
							End Site
							{
								OFFSET -4.083176 0.000000 0.000000 
							}
						}
					}
				}
			}
		}
	}
	JOINT lThigh
	{
		OFFSET 5.308129 -1.633274 1.361059 
		CHANNELS 3 Xrotation Zrotation Yrotation
		JOINT lShin
		{
			OFFSET -2.041588 -20.007561 0.000000 
			CHANNELS 3 Xrotation Zrotation Yrotation
			JOINT lFoot
			{
				OFFSET 0.000000 -19.190928 -1.224953 
				CHANNELS 3 Xrotation Yrotation Zrotation
				End Site
				{
					OFFSET 0.000000 -2.449906 4.627600 
				}
			}
		}
	}
	JOINT rThigh
	{
		OFFSET -5.308129 -1.633274 1.361059 
		CHANNELS 3 Xrotation Zrotation Yrotation
		JOINT rShin
		{
			OFFSET 2.041588 -20.007561 0.000000 
			CHANNELS 3 Xrotation Zrotation Yrotation
			JOINT rFoot
			{
				OFFSET 0.000000 -19.190928 -1.224953 
				CHANNELS 3 Xrotation Yrotation Zrotation
				End Site
				{
					OFFSET 0.000000 -2.449906 4.627600 
				}
			}
		}
	}
}
MOTION
Frames: 10
Frame Time: 0.033333
-8.223676 33.201752 43.811668 -28.014124 25.623444 -117.389534 0.000000 0.000000 0.000000 59.856228 8.338982 2.912692 -6.465200 -5.804689 -13.822308 -23.897146 -9.820082 -10.695738 -3.779215 10.113647 3.137936 -17.634628 -111.822296 -44.354118 -11.862915 -0.539823 2.475313 80.288193 -16.424582 26.518902 3.115944 -9.378610 3.096357 54.011837 61.163311 -41.048836 -3.246706 1.629744 2.458027 -39.477016 -24.608562 -12.086620 -79.041031 21.922348 23.699389 122.330925 1.967989 -10.542274 -18.779791 -5.057631 -0.567111 0.350035 -18.014040 -18.958565 57.100647 3.348508 27.402510 32.933300 5.264032 17.932280 
-8.280236 33.053574 43.982445 -21.440861 28.458040 -116.084503 0.000000 0.000000 0.000000 59.705997 9.321222 3.246200 -6.648396 -5.003031 -12.157071 -26.659626 -9.777518 -8.455320 -3.809422 10.161473 3.129963 -19.602365 -108.178268 -42.181076 -10.327557 -0.555985 2.459528 81.844353 -17.572098 26.145073 3.072682 -9.332457 3.085245 63.781200 65.754303 -33.033424 -3.299376 1.490639 2.457635 -43.114815 -21.252232 -1.393962 -77.532104 24.573095 24.313143 121.926704 2.426897 0.167778 -25.122623 -9.916062 -0.223458 3.258582 -19.974447 -19.068876 55.779083 3.277161 25.076416 36.972260 4.322795 12.773594 
-8.274005 32.616436 44.402527 -15.553729 30.344976 -115.000168 0.000000 0.000000 0.000000 59.185844 10.205911 3.503396 -6.818420 -4.233883 -10.566423 -28.100237 -9.205043 -6.718486 -3.847063 10.199690 3.108925 -20.731819 -105.644066 -42.766865 -9.007512 -0.566064 2.459553 82.133766 -19.675041 26.811220 3.026773 -9.297071 3.054893 69.823067 66.842194 -26.109333 -3.295367 1.403390 2.447898 -36.409107 -15.795911 1.208718 -79.051086 26.199810 18.968819 124.060867 2.494764 -0.934618 -28.482008 -8.291972 0.160232 4.159408 -24.403126 -20.379471 53.834435 3.394004 24.790588 38.799873 3.147624 8.749353 
-8.264995 32.177422 44.822189 -9.507421 32.114822 -113.689171 0.000000 0.000000 0.000000 58.680988 11.080309 3.751798 -6.963378 -3.463073 -8.971625 -29.517626 -8.581154 -4.988495 -3.884679 10.237933 3.089613 -21.958767 -103.107262 -43.219177 -7.678231 -0.564900 2.448582 82.408875 -21.780710 27.471523 2.992241 -9.260624 3.035715 76.386513 67.592102 -18.610630 -3.272100 1.316414 2.447949 -29.533554 -10.674053 4.271972 -80.773041 27.699438 13.505945 126.233765 2.581993 -2.034635 -31.849596 -6.682498 0.673855 5.174091 -28.816236 -21.812078 51.888901 3.501465 24.507296 40.550716 1.865225 4.815404 
-7.952967 31.531467 45.198402 -4.104468 32.274456 -113.951202 0.000000 0.000000 0.000000 58.955357 10.196480 3.474563 -7.118423 -2.252361 -6.206341 -29.191847 -7.258618 -2.530357 -3.845310 10.200344 3.099335 -26.374838 -100.103699 -39.137547 -5.898467 -0.584381 2.438228 81.773430 -22.343834 28.263334 3.025177 -9.297587 3.045269 78.261192 65.162918 -10.492524 -0.623532 1.322199 2.451514 -16.832088 -5.706768 -2.312297 -83.687607 30.817991 9.278030 129.510147 2.747599 -2.315581 -31.502710 -3.742112 1.919006 2.936516 -34.224449 -22.618670 49.558029 3.665656 25.718376 42.131405 1.444418 3.381961 
-7.639982 30.884703 45.573414 1.304319 32.407055 -114.177292 0.000000 0.000000 0.000000 59.259575 9.311829 3.207654 -7.212553 -1.043031 -3.447938 -28.809202 -5.947258 -0.088429 -3.805928 10.162770 3.109057 -34.290619 -97.217133 -31.564291 -4.118726 -0.604826 2.425503 81.117317 -22.904835 29.069777 3.069476 -9.333502 3.066000 79.173958 62.651337 -3.292875 2.131840 1.342753 2.459659 -4.938326 0.466191 -7.606105 -86.929932 33.738167 4.749993 132.759171 2.932597 -2.529138 -31.197651 -0.921002 3.118124 0.620767 -39.650948 -23.215376 47.225101 3.883306 26.945797 43.731590 0.950236 1.921422 
-7.222788 30.149551 45.818066 5.506649 28.607208 -114.102913 0.000000 0.000000 0.000000 61.753490 7.958477 2.929220 -7.125561 -0.575718 -2.275570 -27.498940 -4.326132 0.244182 -3.782258 10.089527 3.218143 -34.432087 -96.546165 -33.305927 -2.906468 -0.611592 2.418911 79.370506 -24.499147 31.364117 3.139668 -9.393322 3.174890 74.943153 59.313610 -3.894795 14.680542 1.152463 2.531642 -5.493330 -1.244447 -9.838601 -85.946754 36.386520 2.666640 135.126297 3.303555 2.422433 -31.320915 -6.373312 2.213097 -2.471472 -45.751064 -23.043034 45.423679 4.173905 31.311575 43.551952 -1.197587 0.302199 
-6.805498 29.414886 46.060024 9.570586 24.805683 -114.330536 0.000000 0.000000 0.000000 64.252655 6.604657 2.586123 -7.039168 -0.097639 -1.084000 -26.161985 -2.714687 0.615469 -3.749155 10.026718 3.325561 -34.486305 -95.862610 -35.116577 -1.684771 -0.608836 2.420988 77.533478 -26.018972 33.736065 3.211154 -9.442616 3.293383 71.181488 55.977020 -4.033781 27.202612 0.986603 2.640125 -5.998570 -2.957127 -11.998857 -85.056900 39.061596 0.539580 137.534500 3.489350 7.328906 -31.565090 -11.762869 1.335257 -6.025852 -51.786659 -22.282400 43.616795 4.584158 35.703289 43.349602 -3.345549 -1.317594 
-6.375191 28.728750 46.012203 14.318413 20.142139 -114.630043 0.000000 0.000000 0.000000 67.312363 5.113548 2.167018 -6.909838 0.527327 0.459055 -23.122780 -0.781058 1.269547 -3.708910 9.953633 3.453925 -44.559891 -94.145302 -25.219301 0.525965 -0.652270 2.412190 74.759575 -25.647631 35.192223 3.285079 -9.500845 3.423085 70.244949 54.451557 -5.980549 35.643497 0.795696 2.730041 -7.220481 -2.222676 -7.542798 -82.261894 41.501995 -2.672859 139.670807 3.626500 8.302471 -33.815578 -12.050127 0.627425 -11.192983 -52.682159 -17.890087 39.104523 4.874491 41.292488 42.738556 -6.109964 -3.244382 
-5.946095 28.043530 45.962795 18.944660 15.491506 -115.296570 0.000000 0.000000 0.000000 70.380592 3.670314 1.673372 -6.766916 1.141887 1.992765 -20.058571 1.112595 2.012287 -3.678094 9.880176 3.582266 -65.971886 -92.750191 -3.994903 2.716837 -0.687089 2.409725 71.995178 -25.223812 36.649704 3.370666 -9.557624 3.562362 69.407791 52.892460 -7.869658 44.051109 0.620694 2.843447 -8.391203 -1.419259 -3.116920 -79.520393 44.008347 -5.817541 141.799408 3.704715 9.277322 -36.091358 -12.310540 -0.104650 -16.533327 -53.327824 -13.346601 34.622013 5.582947 46.827129 42.032978 -8.833995 -5.205344 
